<svg width="117" height="24" viewBox="0 0 117 24" fill="none" xmlns="http://www.w3.org/2000/svg">
<g clip-path="url(#clip0_7_98)">
<path d="M17.4088 21.0105H17.3391C15.8907 23.1059 13.5509 24.014 10.7516 24.014C7.67376 24.014 5.02765 22.9523 3.17536 20.9546C1.05845 18.6915 0 15.5902 0 12.014C0 5.22468 4.30344 0 11.4062 0C17.4088 0 21.1969 3.12922 21.949 8.24214H15.4589C15.1108 6.76134 13.7181 5.53201 11.6708 5.53201C8.4537 5.54599 6.8103 8.24214 6.8103 12.014C6.8103 15.7858 8.67654 18.5937 11.9215 18.5937C14.3587 18.5937 15.5564 17.2666 15.9743 15.7299H12.9103V10.9523H22.3807V23.4552H17.9101L17.4088 21.0105Z" fill="white"/>
<path d="M24.6648 0.41909H36.071C40.7644 0.41909 44.7475 2.5844 44.7475 7.27824C44.7475 9.91848 43.3966 11.7905 40.9872 12.8801V12.9919C42.8534 13.7043 43.8144 14.9895 44.2043 16.7916C44.8171 19.5576 44.3018 22.8824 45.1375 23.1059V23.4552H38.5222C37.8815 23.0081 38.1322 20.1723 37.6586 18.1048C37.2409 16.3306 36.4748 15.4366 34.5112 15.4366H31.3915V23.4552H24.6787V0.41909H24.6648ZM31.3776 10.631H34.9708C36.8927 10.631 37.9651 9.79278 37.9651 8.18628C37.9651 6.67752 37.0041 5.69965 35.0683 5.69965H31.3776V10.631Z" fill="white"/>
<path d="M54.1622 0.41909H61.0003L69.5095 23.4552H62.3791L61.2511 20.0745H53.4798L52.3517 23.4552H45.6667L54.1622 0.41909ZM54.9978 15.4366H59.7469L58.2985 10.9243C57.9503 9.79278 57.435 7.96272 57.435 7.96272H57.3654C57.3654 7.96272 56.8779 9.79278 56.5019 10.9243L54.9978 15.4366Z" fill="white"/>
<path d="M68.2561 12.014C68.2561 5.11292 72.9775 0 79.8853 0C82.3921 0 84.6343 0.642606 86.3059 1.80209C88.6873 3.45052 90.0661 6.02094 90.3583 8.95458H83.6455C83.4787 7.15248 81.9745 5.54599 79.7881 5.54599C76.6123 5.54599 75.0667 8.24214 75.0667 12.014C75.0667 15.7858 76.8631 18.4959 79.8577 18.4959C82.1971 18.4959 83.6179 16.9453 83.8405 14.8918H90.6229C90.4279 17.4342 89.2723 19.6973 87.6289 21.2759C85.6651 23.1758 83.2279 24.014 79.8853 24.014C72.8803 24 68.2561 18.915 68.2561 12.014Z" fill="white"/>
<path d="M92.2524 0.41909H110.149V5.89523H98.9652V9.02442H108.31V14.0815H98.9652V17.6857H110.469V23.4552H92.2524V0.41909Z" fill="white"/>
<path d="M111.514 0.866123V0.41909H113.742V0.866123H112.892V3.12922H112.363V0.866123H111.514ZM114.187 3.12922V0.41909H114.94L115.525 2.48661H115.538L116.137 0.41909H116.903V3.12922H116.416V1.04773H116.402C116.332 1.32712 116.249 1.59255 116.179 1.81606L115.789 3.12922H115.288L114.898 1.81606L114.689 1.04773H114.675V3.11525H114.187V3.12922Z" fill="white"/>
</g>
<defs>
<clipPath id="clip0_7_98">
<rect width="117" height="24" fill="white"/>
</clipPath>
</defs>
</svg>
